# xmcd
#
# Track frame offsets:
#       150
#       29282
#       60432
#       87134
#       115396
#       142118
#       174885
#       206817
#       236105
#       263873
#       291749
#
# Disc length: 4147 seconds
#
# Revision: 4
# Processed by: cddbd v1.5.2PL0 Copyright (c) Steve Scherf et al.
# Submitted via: FreeDbEdit v0.1
#
DISCID=a610310b
DTITLE=Charles Dickens - A Christmas Carol (Read by Jim Dale) [CD2]
DYEAR=2003
DGENRE=Book
TTITLE0=Chapter 2 - The First of the Three Spirits (Part 4)
TTITLE1=Chapter 2 - The First of the Three Spirits (Part 5)
TTITLE2=Chapter 2 - The First of the Three Spirits (Part 6)
TTITLE3=Chapter 3 - The Second of the Three Spirits (Part 1)
TTITLE4=Chapter 3 - The Second of the Three Spirits (Part 2)
TTITLE5=Chapter 3 - The Second of the Three Spirits (Part 3)
TTITLE6=Chapter 3 - The Second of the Three Spirits (Part 4)
TTITLE7=Chapter 3 - The Second of the Three Spirits (Part 5)
TTITLE8=Chapter 3 - The Second of the Three Spirits (Part 6)
TTITLE9=Chapter 3 - The Second of the Three Spirits (Part 7)
TTITLE10=Chapter 3 - The Second of the Three Spirits (Part 8)
EXTD=
EXTT0=
EXTT1=
EXTT2=
EXTT3=
EXTT4=
EXTT5=
EXTT6=
EXTT7=
EXTT8=
EXTT9=
EXTT10=
PLAYORDER=
